<svg version="1.2" baseProfile="tiny-ps" xmlns="http://www.w3.org/2000/svg" width="600" height="600" viewBox="0 0 600 600" preserveAspectRatio="xMidYMid meet">
<title>FoodVault</title>
<defs>
<linearGradient id="bg" x1="0" y1="0" x2="1" y2="0" gradientUnits="objectBoundingBox">
<stop offset="0" stop-color="#4F46E5"/>
<stop offset="1" stop-color="#7C3AED"/>
</linearGradient>
</defs>
<rect width="600" height="600" fill="url(#bg)"/>
<g transform="translate(0.000000,600.000000) scale(0.100000,-0.100000)" fill="#FFFFFF" stroke="none">
<path d="M975 3501 c-34 -14 -45 -51 -47 -165 -3 -100 -5 -109 -24 -116 -17
-7 -35 6 -102 71 -63 61 -88 79 -110 79 -37 0 -62 -28 -62 -69 0 -27 12 -45
75 -106 73 -72 89 -105 63 -122 -7 -4 -52 -6 -99 -5 -112 4 -163 -9 -178 -46
-16 -37 1 -76 39 -92 16 -7 68 -11 117 -10 123 3 122 3 129 -26 6 -22 -4 -35
-70 -99 -65 -63 -76 -78 -76 -108 0 -20 7 -41 18 -50 36 -33 64 -21 151 62 70
68 86 79 104 72 20 -8 22 -16 24 -112 2 -57 5 -114 8 -126 7 -32 47 -55 79
-47 43 10 56 50 56 169 0 100 1 106 23 114 19 8 33 -2 103 -70 88 -85 117 -96
154 -59 38 38 27 68 -61 158 -77 77 -81 83 -67 103 13 20 23 22 132 23 111 1
119 2 137 25 24 29 24 62 2 90 -16 19 -30 21 -137 24 -110 2 -120 4 -134 24
-14 22 -11 26 67 106 88 90 99 119 61 157 -37 37 -65 26 -153 -61 -79 -78 -83
-80 -107 -67 -24 13 -25 18 -28 118 -3 133 -6 144 -37 158 -14 7 -27 12 -28
11 -1 0 -11 -4 -22 -8z m59 -37 c3 -9 6 -70 6 -137 l0 -122 42 -13 41 -13 74
80 c79 85 100 98 133 81 38 -20 24 -52 -64 -139 l-84 -83 17 -39 16 -39 126 0
c131 0 149 -5 149 -45 0 -40 -18 -45 -152 -45 -96 0 -128 -3 -128 -12 0 -7 -6
-25 -14 -39 -13 -26 -12 -29 70 -110 85 -85 100 -114 69 -139 -26 -21 -59 -3
-138 79 l-78 79 -39 -16 -40 -17 0 -126 c0 -134 -2 -139 -50 -139 -31 0 -40
33 -40 152 l0 114 -37 17 -38 17 -86 -86 c-91 -90 -109 -98 -137 -56 -14 21
-11 25 72 111 l87 88 -13 42 -13 41 -132 0 c-121 0 -133 2 -143 19 -14 27 -13
37 6 55 12 13 40 16 144 16 l128 0 7 30 c4 16 11 33 17 36 5 3 -32 48 -82 100
-89 90 -92 95 -78 116 28 42 46 34 139 -58 81 -80 90 -87 111 -77 13 7 29 13
37 15 10 3 13 29 12 121 -1 68 2 125 9 137 13 25 65 28 74 4z"/>
<path d="M923 3099 c-20 -13 -38 -37 -49 -65 -16 -41 -16 -47 0 -86 20 -53 68
-88 120 -88 131 0 184 157 80 239 -36 28 -108 28 -151 0z m127 -14 c32 -17 60
-61 60 -96 0 -35 -38 -86 -72 -98 -73 -26 -148 24 -148 98 0 84 85 135 160 96z"/>
<path d="M1631 3296 c-8 -10 -12 -97 -12 -297 0 -236 3 -285 15 -297 17 -18
122 -18 143 0 9 7 13 40 13 109 l0 98 120 3 c117 3 120 3 120 -19 0 -36 37
-111 73 -145 18 -18 56 -41 83 -51 129 -46 263 5 323 122 l18 33 13 -31 c20
-49 86 -108 140 -126 71 -23 154 -18 213 13 47 25 96 76 111 117 8 19 8 19 19
1 7 -10 25 -36 40 -58 54 -76 190 -113 267 -73 18 9 31 11 35 5 11 -17 121
-12 136 7 11 12 15 75 17 282 3 247 5 264 19 231 8 -19 57 -141 109 -270 52
-129 100 -240 106 -247 7 -9 37 -13 89 -13 94 0 85 -10 160 175 29 72 55 132
58 135 3 3 7 12 9 20 2 8 10 29 17 45 20 43 76 177 82 198 10 33 -15 47 -87
47 -81 0 -87 -5 -130 -115 -17 -44 -37 -93 -44 -110 -8 -16 -24 -58 -37 -92
-13 -35 -26 -63 -29 -63 -3 0 -34 78 -69 173 -35 94 -71 180 -79 190 -20 23
-143 25 -162 2 -12 -14 -15 -14 -30 0 -23 21 -113 20 -134 -1 -12 -11 -16 -36
-16 -90 0 -68 -2 -74 -17 -66 -94 50 -240 -1 -292 -102 l-25 -48 -17 34 c-46
89 -122 133 -229 132 -109 -1 -179 -43 -225 -133 l-17 -34 -25 44 c-26 48 -89
100 -140 117 -18 6 -60 10 -95 8 -92 -4 -155 -41 -211 -126 -16 -23 -17 -23
-17 -3 0 34 -20 41 -135 45 l-110 3 0 35 0 35 123 2 c78 1 129 6 138 14 18 14
19 120 2 137 -19 19 -412 17 -427 -2z m417 -68 l3 -58 -141 0 -140 0 0 -60 0
-60 125 0 126 0 -3 -57 -3 -58 -123 0 -122 0 0 -112 0 -113 -65 0 -65 0 0 290
0 290 203 -2 202 -3 3 -57z m1442 -228 l0 -290 -61 0 c-56 0 -61 2 -56 20 6
23 -5 26 -22 6 -18 -21 -95 -39 -138 -32 -144 25 -225 186 -158 316 50 96 183
139 280 90 22 -11 39 -20 40 -20 0 0 -1 45 -3 100 l-3 100 60 0 61 0 0 -290z
m235 163 c26 -71 63 -170 81 -222 25 -70 35 -90 40 -75 4 10 42 109 85 219
l78 200 72 3 c65 3 71 1 66 -15 -3 -10 -56 -140 -119 -290 l-113 -272 -75 -1
-75 0 -112 283 c-62 156 -113 286 -113 290 0 4 31 7 69 7 l69 0 47 -127z
m-1345 -50 c104 -43 157 -168 115 -271 -34 -80 -127 -142 -215 -142 -54 0
-126 30 -163 66 -176 176 28 444 263 347z m495 -2 c83 -36 132 -123 122 -217
-14 -131 -143 -216 -283 -185 -115 26 -194 149 -165 256 16 60 45 101 91 130
73 46 152 51 235 16z"/>
<path d="M3214 3021 c-79 -34 -85 -165 -9 -199 83 -38 164 11 165 99 0 37 -5
50 -29 73 -31 30 -91 42 -127 27z m109 -38 c36 -40 29 -110 -12 -133 -12 -6
-37 -11 -57 -12 -74 -3 -110 94 -54 142 30 26 101 27 123 3z"/>
<path d="M2234 3021 c-79 -34 -85 -165 -9 -199 116 -53 221 75 138 168 -30 34
-89 48 -129 31z m111 -46 c63 -62 0 -158 -88 -134 -101 28 -82 159 23 159 30
0 47 -6 65 -25z"/>
<path d="M2713 3010 c-38 -23 -53 -48 -53 -90 0 -91 96 -140 177 -90 68 41 61
150 -12 185 -44 20 -73 19 -112 -5z m125 -37 c33 -37 30 -85 -10 -118 -26 -22
-38 -25 -67 -20 -46 8 -70 32 -72 70 -4 47 9 71 44 88 39 20 75 13 105 -20z"/>
<path d="M5063 3302 c-9 -6 -14 -64 -19 -192 -3 -102 -8 -187 -10 -189 -2 -2
-4 44 -4 102 0 91 -2 108 -17 115 -25 12 -120 3 -133 -13 -6 -7 -10 -63 -11
-128 0 -94 -4 -120 -17 -137 -19 -23 -76 -30 -94 -12 -6 6 -13 69 -16 145 -5
131 -6 135 -29 146 -35 16 -85 13 -112 -6 -20 -13 -27 -14 -45 -3 -25 16 -118
21 -128 7 -4 -7 -17 -6 -35 2 -17 7 -56 12 -89 13 -136 2 -231 -90 -235 -228
-4 -97 45 -175 137 -220 47 -23 63 -26 119 -21 36 2 71 10 78 16 10 7 17 7 24
0 15 -15 109 -15 128 1 10 9 15 32 16 79 l1 66 19 -42 c20 -44 79 -109 101
-111 7 -1 32 -5 55 -10 34 -7 51 -5 84 10 29 13 46 15 53 8 14 -14 119 -13
134 2 7 7 13 30 14 52 1 41 1 41 5 6 7 -53 28 -70 85 -70 88 0 88 0 88 164 l0
144 25 0 c24 0 25 -3 25 -57 0 -89 17 -169 42 -201 27 -34 80 -52 151 -52 60
1 76 18 77 83 0 50 -13 69 -46 69 -49 0 -54 8 -54 81 l0 69 34 0 c48 0 66 22
66 80 0 41 -4 52 -24 65 -13 9 -28 15 -32 14 -36 -6 -44 2 -44 46 0 38 -4 47
-24 56 -15 7 -36 8 -53 4 -15 -5 -34 -9 -41 -11 -27 -5 -42 -27 -42 -60 0 -26
-4 -34 -18 -34 -10 0 -23 -5 -30 -12 -9 -9 -12 4 -12 61 0 101 -7 111 -78 111
-31 0 -63 -4 -69 -8z m125 -304 l2 -288 -60 0 -60 0 0 290 0 291 58 -3 57 -3
3 -287z m219 182 l-7 -60 56 0 55 0 -3 -52 -3 -52 -54 3 -53 3 3 -92 c4 -101
10 -110 72 -110 l37 0 0 -55 0 -55 -55 0 c-30 0 -72 7 -93 15 -60 24 -72 55
-72 184 l0 111 -35 0 -35 0 0 50 0 50 35 0 35 0 0 49 0 49 48 10 c79 16 76 19
69 -48z m-1014 -70 c31 -17 37 -17 37 -5 0 12 13 15 60 15 l60 0 0 -205 0
-205 -60 0 c-55 0 -60 2 -60 22 0 19 -2 20 -17 6 -29 -25 -91 -41 -136 -34
-129 20 -208 137 -183 271 8 43 64 108 115 135 49 26 135 26 184 0z m327 -120
c0 -126 1 -132 25 -155 26 -27 63 -32 98 -13 42 22 46 38 47 171 l0 127 60 0
60 0 0 -205 0 -205 -60 0 c-52 0 -60 3 -60 18 0 18 -4 17 -50 -6 -86 -42 -179
-13 -219 70 -18 39 -21 62 -21 186 l0 142 60 0 60 0 0 -130z m322 -162 c-9 -9
-12 -7 -12 12 0 19 3 21 12 12 9 -9 9 -15 0 -24z"/>
<path d="M4265 3015 c-40 -20 -57 -50 -57 -96 1 -49 15 -75 52 -94 82 -42 170
8 170 97 0 40 -21 73 -60 93 -36 19 -67 19 -105 0z m83 -14 c28 -2 52 -41 52
-86 0 -37 -4 -47 -27 -62 -38 -25 -98 -21 -123 8 -21 27 -25 55 -10 93 10 27
55 55 79 51 9 -2 22 -4 29 -4z"/>
</g>
</svg>
